<svg width="28" height="28" viewBox="0 0 28 28" fill="none" xmlns="http://www.w3.org/2000/svg">
<path d="M15.3708 0.667969C16.8713 0.670449 17.6317 0.678382 18.2888 0.697942L18.5476 0.706409C18.8465 0.717035 19.1415 0.730369 19.4971 0.747036C20.9159 0.812582 21.8837 1.03704 22.7337 1.36704C23.6125 1.70592 24.3548 2.1637 25.0959 2.90481C25.8359 3.64592 26.2937 4.39037 26.6337 5.26704C26.9625 6.11592 27.1871 7.08481 27.2537 8.5037C27.2696 8.85925 27.2824 9.15418 27.2929 9.45318L27.3013 9.71196C27.3208 10.369 27.3297 11.1295 27.3325 12.63L27.3336 13.6243C27.3337 13.7457 27.3337 13.8711 27.3337 14.0004L27.3336 14.3765L27.3328 15.3708C27.3303 16.8713 27.3224 17.6317 27.3028 18.2888L27.2943 18.5476C27.2837 18.8465 27.2704 19.1415 27.2537 19.4971C27.1881 20.9159 26.9625 21.8837 26.6337 22.7337C26.2948 23.6125 25.8359 24.3548 25.0959 25.0959C24.3548 25.8359 23.6092 26.2937 22.7337 26.6337C21.8837 26.9625 20.9159 27.1871 19.4971 27.2537C19.1415 27.2696 18.8465 27.2824 18.5476 27.2929L18.2888 27.3013C17.6317 27.3208 16.8713 27.3297 15.3708 27.3325L14.3765 27.3336C14.2551 27.3337 14.1297 27.3337 14.0004 27.3337L13.6243 27.3336L12.63 27.3328C11.1295 27.3303 10.369 27.3224 9.71196 27.3028L9.45318 27.2943C9.15418 27.2837 8.85925 27.2704 8.5037 27.2537C7.08481 27.1881 6.11814 26.9625 5.26704 26.6337C4.38925 26.2948 3.64592 25.8359 2.90481 25.0959C2.1637 24.3548 1.70704 23.6092 1.36704 22.7337C1.03704 21.8837 0.813702 20.9159 0.747036 19.4971C0.731196 19.1415 0.718275 18.8465 0.707809 18.5476L0.699422 18.2888C0.679916 17.6317 0.671022 16.8713 0.668142 15.3708L0.667969 12.63C0.670449 11.1295 0.678382 10.369 0.697942 9.71196L0.706409 9.45318C0.717035 9.15418 0.730369 8.85925 0.747036 8.5037C0.812582 7.0837 1.03704 6.11704 1.36704 5.26704C1.70592 4.38925 2.1637 3.64592 2.90481 2.90481C3.64592 2.1637 4.39037 1.70704 5.26704 1.36704C6.11704 1.03704 7.0837 0.813702 8.5037 0.747036C8.85925 0.731196 9.15418 0.718275 9.45318 0.707809L9.71196 0.699422C10.369 0.679916 11.1295 0.671022 12.63 0.668142L15.3708 0.667969ZM14.0004 7.3337C10.3165 7.3337 7.3337 10.3197 7.3337 14.0004C7.3337 17.6843 10.3197 20.6671 14.0004 20.6671C17.6843 20.6671 20.6671 17.6809 20.6671 14.0004C20.6671 10.3165 17.6809 7.3337 14.0004 7.3337ZM14.0004 10.0004C16.2096 10.0004 18.0004 11.7905 18.0004 14.0004C18.0004 16.2096 16.2101 18.0004 14.0004 18.0004C11.7912 18.0004 10.0004 16.2101 10.0004 14.0004C10.0004 11.7912 11.7905 10.0004 14.0004 10.0004ZM21.0004 5.3337C20.0813 5.3337 19.3337 6.08024 19.3337 6.99924C19.3337 7.91822 20.0803 8.66592 21.0004 8.66592C21.9193 8.66592 22.6671 7.91938 22.6671 6.99924C22.6671 6.08024 21.9181 5.33254 21.0004 5.3337Z" fill="#6E7887"/>
</svg>
