<svg width="25" height="24" viewBox="0 0 25 24" fill="none" xmlns="http://www.w3.org/2000/svg">
<path d="M20.4489 20.452H16.8949V14.8829C16.8949 13.5549 16.868 11.846 15.0429 11.846C13.19 11.846 12.9069 13.2911 12.9069 14.7849V20.452H9.35291V9H12.7669V10.5609H12.8129C13.29 9.66093 14.45 8.711 16.1829 8.711C19.784 8.711 20.45 11.0811 20.45 14.166L20.4489 20.452ZM5.33895 7.433C4.19495 7.433 3.27595 6.507 3.27595 5.368C3.27595 4.23 4.19595 3.305 5.33895 3.305C6.47895 3.305 7.40295 4.23 7.40295 5.368C7.40295 6.507 6.47795 7.433 5.33895 7.433ZM7.12095 20.452H3.55695V9H7.12095V20.452ZM22.2269 0H1.77295C0.793953 0 0.00195312 0.774 0.00195312 1.729V22.2711C0.00195312 23.2269 0.793953 24 1.77295 24H22.224C23.202 24 24.002 23.2269 24.002 22.2711V1.729C24.002 0.774 23.202 0 22.224 0H22.2269Z" fill="#6E7887"/>
</svg>
