<svg width="161" height="33" viewBox="0 0 161 33" fill="none" xmlns="http://www.w3.org/2000/svg">
<g clip-path="url(#clip0_272_681)">
<path d="M48.5723 24.7381V8.45013H51.6437V21.9459H59.0896V24.7381H48.5723Z" fill="#6E7887"/>
<path d="M65.7217 25.0639C64.5738 25.0639 63.5422 24.8312 62.627 24.3658C61.7117 23.9005 60.9904 23.2257 60.463 22.3415C59.9356 21.4573 59.6719 20.3947 59.6719 19.1537V18.7814C59.6719 17.5404 59.9356 16.4778 60.463 15.5936C60.9904 14.7094 61.7117 14.0346 62.627 13.5692C63.5422 13.1039 64.5738 12.8712 65.7217 12.8712C66.8696 12.8712 67.9012 13.1039 68.8164 13.5692C69.7316 14.0346 70.4529 14.7094 70.9804 15.5936C71.5078 16.4778 71.7715 17.5404 71.7715 18.7814V19.1537C71.7715 20.3947 71.5078 21.4573 70.9804 22.3415C70.4529 23.2257 69.7316 23.9005 68.8164 24.3658C67.9012 24.8312 66.8696 25.0639 65.7217 25.0639ZM65.7217 22.4578C66.6214 22.4578 67.366 22.1708 67.9555 21.5969C68.5449 21.0074 68.8397 20.1697 68.8397 19.0839V18.8512C68.8397 17.7653 68.5449 16.9354 67.9555 16.3614C67.3815 15.772 66.6369 15.4772 65.7217 15.4772C64.822 15.4772 64.0774 15.772 63.4879 16.3614C62.8984 16.9354 62.6037 17.7653 62.6037 18.8512V19.0839C62.6037 20.1697 62.8984 21.0074 63.4879 21.5969C64.0774 22.1708 64.822 22.4578 65.7217 22.4578Z" fill="#6E7887"/>
<path d="M72.8711 19.0141V18.6418C72.8711 17.4318 73.1115 16.4002 73.5924 15.547C74.0733 14.6784 74.7093 14.0191 75.5004 13.5692C76.3071 13.1039 77.1835 12.8712 78.1298 12.8712C79.1846 12.8712 79.9835 13.0573 80.5264 13.4296C81.0694 13.8019 81.4649 14.1897 81.7131 14.593H82.132V13.1969H85.0173V26.7857C85.0173 27.5769 84.7846 28.2051 84.3192 28.6705C83.8538 29.1514 83.2334 29.3918 82.4577 29.3918H74.7326V26.8323H81.4339C81.8683 26.8323 82.0854 26.5996 82.0854 26.1342V23.1326H81.6666C81.5115 23.3808 81.2943 23.6367 81.0151 23.9005C80.7359 24.1486 80.3636 24.3581 79.8982 24.5287C79.4328 24.6993 78.8434 24.7847 78.1298 24.7847C77.1835 24.7847 76.3071 24.5597 75.5004 24.1099C74.7093 23.6445 74.0733 22.9852 73.5924 22.132C73.1115 21.2634 72.8711 20.224 72.8711 19.0141ZM78.9675 22.2251C79.8672 22.2251 80.6195 21.9381 81.2245 21.3642C81.8295 20.7902 82.132 19.9836 82.132 18.9443V18.7116C82.132 17.6567 81.8295 16.8501 81.2245 16.2916C80.635 15.7177 79.8827 15.4307 78.9675 15.4307C78.0677 15.4307 77.3154 15.7177 76.7104 16.2916C76.1054 16.8501 75.8029 17.6567 75.8029 18.7116V18.9443C75.8029 19.9836 76.1054 20.7902 76.7104 21.3642C77.3154 21.9381 78.0677 22.2251 78.9675 22.2251Z" fill="#6E7887"/>
<path d="M92.714 25.0639C91.5661 25.0639 90.5345 24.8312 89.6192 24.3658C88.704 23.9005 87.9827 23.2257 87.4553 22.3415C86.9279 21.4573 86.6641 20.3947 86.6641 19.1537V18.7814C86.6641 17.5404 86.9279 16.4778 87.4553 15.5936C87.9827 14.7094 88.704 14.0346 89.6192 13.5692C90.5345 13.1039 91.5661 12.8712 92.714 12.8712C93.8619 12.8712 94.8934 13.1039 95.8087 13.5692C96.7239 14.0346 97.4452 14.7094 97.9727 15.5936C98.5001 16.4778 98.7638 17.5404 98.7638 18.7814V19.1537C98.7638 20.3947 98.5001 21.4573 97.9727 22.3415C97.4452 23.2257 96.7239 23.9005 95.8087 24.3658C94.8934 24.8312 93.8619 25.0639 92.714 25.0639ZM92.714 22.4578C93.6137 22.4578 94.3583 22.1708 94.9477 21.5969C95.5372 21.0074 95.8319 20.1697 95.8319 19.0839V18.8512C95.8319 17.7653 95.5372 16.9354 94.9477 16.3614C94.3738 15.772 93.6292 15.4772 92.714 15.4772C91.8142 15.4772 91.0697 15.772 90.4802 16.3614C89.8907 16.9354 89.596 17.7653 89.596 18.8512V19.0839C89.596 20.1697 89.8907 21.0074 90.4802 21.5969C91.0697 22.1708 91.8142 22.4578 92.714 22.4578Z" fill="#6E7887"/>
<path d="M100.423 24.7381V13.1969H103.355V24.7381H100.423ZM101.889 11.8474C101.361 11.8474 100.912 11.6767 100.539 11.3354C100.182 10.9942 100.004 10.5443 100.004 9.98587C100.004 9.42743 100.182 8.97757 100.539 8.6363C100.912 8.29503 101.361 8.12439 101.889 8.12439C102.432 8.12439 102.882 8.29503 103.238 8.6363C103.595 8.97757 103.774 9.42743 103.774 9.98587C103.774 10.5443 103.595 10.9942 103.238 11.3354C102.882 11.6767 102.432 11.8474 101.889 11.8474Z" fill="#6E7887"/>
<path d="M105.557 29.3918V13.1969H108.442V14.593H108.861C109.124 14.1432 109.535 13.7476 110.094 13.4063C110.652 13.0496 111.451 12.8712 112.491 12.8712C113.421 12.8712 114.282 13.1039 115.073 13.5692C115.865 14.0191 116.501 14.6861 116.981 15.5703C117.462 16.4545 117.703 17.5249 117.703 18.7814V19.1537C117.703 20.4102 117.462 21.4805 116.981 22.3647C116.501 23.2489 115.865 23.9237 115.073 24.3891C114.282 24.8389 113.421 25.0639 112.491 25.0639C111.793 25.0639 111.203 24.9786 110.722 24.8079C110.257 24.6528 109.877 24.4511 109.582 24.2029C109.303 23.9392 109.078 23.6755 108.907 23.4118H108.488V29.3918H105.557ZM111.606 22.5043C112.522 22.5043 113.274 22.2174 113.863 21.6434C114.468 21.0539 114.771 20.2008 114.771 19.0839V18.8512C114.771 17.7343 114.468 16.8889 113.863 16.3149C113.258 15.7254 112.506 15.4307 111.606 15.4307C110.707 15.4307 109.954 15.7254 109.349 16.3149C108.744 16.8889 108.442 17.7343 108.442 18.8512V19.0839C108.442 20.2008 108.744 21.0539 109.349 21.6434C109.954 22.2174 110.707 22.5043 111.606 22.5043Z" fill="#6E7887"/>
<path d="M124.14 25.0639C122.635 25.0639 121.402 24.7381 120.44 24.0866C119.479 23.4351 118.897 22.5043 118.695 21.2944L121.394 20.5963C121.503 21.1393 121.681 21.5658 121.93 21.8761C122.193 22.1863 122.511 22.4113 122.884 22.5509C123.271 22.675 123.69 22.737 124.14 22.737C124.823 22.737 125.327 22.6207 125.652 22.388C125.978 22.1398 126.141 21.8373 126.141 21.4805C126.141 21.1237 125.986 20.8523 125.676 20.6661C125.365 20.4645 124.869 20.3016 124.187 20.1775L123.535 20.0611C122.728 19.906 121.992 19.6966 121.325 19.4329C120.657 19.1537 120.122 18.7736 119.719 18.2927C119.316 17.8119 119.114 17.1914 119.114 16.4313C119.114 15.2833 119.533 14.4069 120.371 13.8019C121.208 13.1814 122.31 12.8712 123.675 12.8712C124.962 12.8712 126.033 13.1581 126.886 13.7321C127.739 14.3061 128.297 15.0584 128.561 15.9892L125.839 16.8268C125.715 16.2374 125.459 15.8185 125.071 15.5703C124.698 15.3221 124.233 15.198 123.675 15.198C123.116 15.198 122.69 15.2989 122.395 15.5005C122.1 15.6867 121.953 15.9504 121.953 16.2916C121.953 16.6639 122.108 16.9432 122.418 17.1293C122.728 17.2999 123.147 17.4318 123.675 17.5249L124.326 17.6412C125.195 17.7963 125.978 18.0058 126.676 18.2695C127.39 18.5177 127.948 18.8822 128.352 19.3631C128.77 19.8285 128.98 20.4645 128.98 21.2711C128.98 22.4811 128.538 23.4196 127.654 24.0866C126.785 24.7381 125.614 25.0639 124.14 25.0639Z" fill="#6E7887"/>
<path d="M134.899 24.9243C133.999 24.9243 133.208 24.7226 132.525 24.3193C131.858 23.9005 131.339 23.3265 130.966 22.5974C130.594 21.8683 130.408 21.0307 130.408 20.0844V13.1969H133.34V19.8517C133.34 20.7204 133.549 21.3719 133.968 21.8063C134.402 22.2406 135.015 22.4578 135.806 22.4578C136.706 22.4578 137.404 22.1631 137.9 21.5736C138.397 20.9686 138.645 20.1309 138.645 19.0606V13.1969H141.577V24.7381H138.691V23.2257H138.273C138.087 23.6135 137.737 23.9935 137.226 24.3658C136.714 24.7381 135.938 24.9243 134.899 24.9243Z" fill="#6E7887"/>
<path d="M143.793 24.7381V13.1969H146.678V14.4534H147.097C147.299 14.0656 147.633 13.7321 148.098 13.4529C148.563 13.1581 149.176 13.0108 149.936 13.0108C150.758 13.0108 151.418 13.1737 151.914 13.4994C152.41 13.8097 152.79 14.2207 153.054 14.7327H153.473C153.737 14.2363 154.109 13.8252 154.59 13.4994C155.071 13.1737 155.753 13.0108 156.637 13.0108C157.351 13.0108 157.995 13.1659 158.569 13.4762C159.158 13.7709 159.624 14.2285 159.965 14.849C160.322 15.454 160.5 16.2218 160.5 17.1526V24.7381H157.568V17.362C157.568 16.726 157.405 16.2529 157.08 15.9426C156.754 15.6169 156.296 15.454 155.707 15.454C155.04 15.454 154.52 15.6711 154.148 16.1055C153.791 16.5243 153.613 17.1293 153.613 17.9204V24.7381H150.681V17.362C150.681 16.726 150.518 16.2529 150.192 15.9426C149.866 15.6169 149.409 15.454 148.819 15.454C148.152 15.454 147.632 15.6711 147.26 16.1055C146.903 16.5243 146.725 17.1293 146.725 17.9204V24.7381H143.793Z" fill="#6E7887"/>
<path d="M39.2812 16.0127C39.2812 11.8985 37.6468 7.95275 34.7376 5.04356C31.8284 2.13437 27.8827 0.500001 23.7685 0.5C19.6543 0.499999 15.7086 2.13437 12.7994 5.04356C9.89023 7.95275 8.25586 11.8985 8.25586 16.0127H13.1036C14.71 16.0127 15.9628 14.6665 16.5512 13.1717C16.9375 12.1903 17.5237 11.2884 18.2839 10.5281C19.7385 9.07352 21.7114 8.25634 23.7685 8.25634C25.8256 8.25634 27.7985 9.07352 29.2531 10.5281C30.7077 11.9827 31.5248 13.9556 31.5248 16.0127H39.2812Z" fill="#6E7887"/>
<path d="M30.3444 21.9491C31.124 20.067 31.5253 18.0498 31.5253 16.0127H39.2808C39.2808 24.5801 32.3355 31.5253 23.7681 31.5253C22.4264 31.5253 21.1244 31.355 19.8828 31.0348C20.5853 30.8538 21.2758 30.6233 21.949 30.3445C23.8311 29.5649 25.5412 28.4223 26.9817 26.9818C28.4222 25.5413 29.5649 23.8312 30.3444 21.9491Z" fill="#2B2F35" fill-opacity="0.5"/>
<path d="M0.5 16.0126C0.5 18.0498 0.901247 20.067 1.68083 21.9491C2.46042 23.8312 3.60307 25.5413 5.04356 26.9818C6.48404 28.4222 8.19415 29.5649 10.0762 30.3445C11.9583 31.1241 13.9755 31.5253 16.0127 31.5253C18.0498 31.5253 20.067 31.1241 21.9491 30.3445C23.8312 29.5649 25.5413 28.4222 26.9818 26.9818C28.4223 25.5413 29.5649 23.8312 30.3445 21.9491C31.1241 20.067 31.5254 18.0498 31.5254 16.0126H26.6776C25.0712 16.0126 23.8184 17.3588 23.23 18.8535C23.2133 18.8961 23.1961 18.9385 23.1786 18.9809C22.7888 19.9219 22.2175 20.777 21.4972 21.4972C20.777 22.2174 19.9219 22.7888 18.9809 23.1786C18.0399 23.5684 17.0313 23.769 16.0127 23.769C14.9941 23.769 13.9855 23.5684 13.0445 23.1786C12.1034 22.7888 11.2484 22.2174 10.5281 21.4972C9.80787 20.777 9.23655 19.9219 8.84676 18.9809C8.45696 18.0398 8.25634 17.0312 8.25634 16.0126H0.5Z" fill="#6E7887"/>
<path d="M0.501953 16.0127C0.501953 7.44524 7.4472 0.5 16.0146 0.5C17.356 0.5 18.6576 0.670246 19.8991 0.990323C17.2352 1.67657 14.7778 3.06535 12.7995 5.04357C9.89029 7.95273 8.25594 11.8985 8.25594 16.0127H0.501953Z" fill="#2B2F35" fill-opacity="0.5"/>
</g>
<defs>
<clipPath id="clip0_272_681">
<rect width="160" height="32" fill="white" transform="translate(0.5 0.5)"/>
</clipPath>
</defs>
</svg>
