<svg width="28" height="22" viewBox="0 0 28 22" fill="none" xmlns="http://www.w3.org/2000/svg">
<path d="M14.3245 0.333252C15.0367 0.337172 16.8184 0.354399 18.7115 0.430225L19.3827 0.459492C21.2887 0.549732 23.1931 0.703892 24.1376 0.967252C25.3975 1.32119 26.3877 2.35392 26.7224 3.66301C27.2553 5.7418 27.322 9.79912 27.3303 10.781L27.3315 10.9845V10.9987C27.3315 10.9987 27.3315 11.0037 27.3315 11.0131L27.3303 11.2166C27.322 12.1985 27.2553 16.2558 26.7224 18.3346C26.3831 19.6485 25.3928 20.6813 24.1376 21.0303C23.1931 21.2937 21.2887 21.4478 19.3827 21.5381L18.7115 21.5673C16.8184 21.6431 15.0367 21.6603 14.3245 21.6643L14.012 21.6654H13.9981C13.9981 21.6654 13.9935 21.6654 13.9843 21.6654L13.672 21.6643C12.1648 21.6561 5.86298 21.5879 3.8587 21.0303C2.59882 20.6763 1.60858 19.6437 1.27384 18.3346C0.740949 16.2558 0.674336 12.1985 0.666016 11.2166V10.781C0.674336 9.79912 0.740949 5.7418 1.27384 3.66301C1.61322 2.34907 2.60346 1.31635 3.8587 0.967252C5.86298 0.409559 12.1648 0.341545 13.672 0.333252H14.3245ZM11.3315 6.3321V15.6654L19.3315 10.9987L11.3315 6.3321Z" fill="#6E7887"/>
</svg>
